<?xml version="1.0" encoding="utf-8"?>
<!-- Svg Vector Icons : http://www.onlinewebfonts.com/icon -->
<!DOCTYPE svg PUBLIC "-//W3C//DTD SVG 1.1//EN" "http://www.w3.org/Graphics/SVG/1.1/DTD/svg11.dtd">
<svg version="1.1" xmlns="http://www.w3.org/2000/svg" xmlns:xlink="http://www.w3.org/1999/xlink" x="0px" y="0px" viewBox="0 0 256 256" enable-background="new 0 0 256 256" xml:space="preserve">
<metadata> Svg Vector Icons : http://www.onlinewebfonts.com/icon </metadata>
<g><g><path fill="#000000" d="M171.3,21.3c1.3,0.5,2.9,0.8,4,1.6c5.8,3.9,5.8,11.8,0,15.7c-1.9,1.3-4,1.5-6.2,1.5c-22.7,0-45.4,0-68.1,0c-19.9,0-39.7,0-59.6,0c-3.9,0-7.1,1-9.7,3.9c-1.7,2-2.8,4.3-2.8,6.9c0,51.3,0,102.6,0,153.8c0,5.6,4.9,10.6,10.5,10.8c1,0,2,0.1,3.1,0.1c42.5,0,84.9,0,127.4,0c5.8,0,9.9,4.2,9.8,9.8c-0.1,4.3-3.4,8-7.9,8.8c-0.4,0.1-0.7,0.2-1.1,0.3c-43.8,0-87.7,0-131.5,0c-0.4-0.1-0.8-0.1-1.2-0.2c-2.7-0.6-5.5-0.8-8.1-1.8c-10.2-3.9-16.6-11.2-19.1-21.9c-0.4-1.9-0.6-3.9-0.8-5.9c0-51.2,0-102.5,0-153.8c0.1-0.4,0.2-0.7,0.2-1.1c0.2-5.4,1.8-10.4,4.8-14.9C18.9,29.2,24.2,25,31.1,23c2.7-0.8,5.6-1.1,8.4-1.6C83.4,21.3,127.3,21.3,171.3,21.3z M14.5,127.9c0,25.4,0,50.9,0,76.3c0,14.6,11.4,26,25.9,26.1c43.2,0,86.3,0,129.5,0c0.5,0,1,0,1.5-0.1c2.5-0.6,4.2-3,3.9-5.5c-0.3-2.6-2.4-4.4-5.1-4.4c-43.1,0-86.2,0-129.2,0c-9.6,0-16.5-6.8-16.5-16.3c0-50.5,0-101.1,0-151.6c0-2,0.3-4,1-5.9c2.2-6.5,8.2-10.5,15.5-10.5c42.6,0,85.2,0,127.8,0c0.5,0,1,0,1.5,0c2.8-0.1,5-2.3,5-5.1c0-2.8-2.2-4.9-5.1-4.9c-43.2,0-86.3,0-129.5,0c-1.7,0-3.4,0.1-5.1,0.4c-12.3,2.2-21.1,13-21.1,25.7C14.5,77.3,14.5,102.6,14.5,127.9z"/><path fill="#000000" d="M214,137.3c-0.6,0-1.1,0-1.7,0c-28.3,0-56.5,0-84.8,0c-2.5,0-4.8-0.4-6.9-2c-2.8-2.2-3.9-5.1-3.5-8.4c0.5-3.9,2.6-6.8,6.6-7.8c1.2-0.3,2.5-0.5,3.7-0.5c28.3,0,56.6,0,85,0c0.5,0,1.1,0,1.6,0c0.1-0.2,0.3-0.4,0.4-0.6c-0.5-0.3-1.1-0.5-1.5-0.9c-8.1-8.1-16.1-16.2-24.2-24.2c-4.4-4.3-3.5-12.2,2-15c3.9-2,7.8-1.7,11.2,1.7c7.3,7.1,14.5,14.4,21.7,21.6c6.4,6.4,12.7,12.9,19.2,19.2c3.7,3.6,3.9,8.7,2.3,12c-0.6,1.2-1.4,2.3-2.3,3.3c-13.5,13.6-27.1,27.1-40.6,40.7c-3.9,3.9-9.7,4.2-13.6,0.8c-4-3.4-3.9-10.1-0.5-13.4c8.4-8.2,16.6-16.5,24.8-24.8c0.4-0.4,1-0.7,1.4-1.1C214.2,137.6,214.1,137.5,214,137.3z M224.7,122.8c-1,0-1.6,0-2.2,0c-31.6,0-63.1,0-94.7,0c-0.8,0-1.7,0-2.5,0.2c-2.3,0.4-4,2.5-4,4.8c0,2.3,1.5,4.4,3.8,4.9c0.8,0.2,1.7,0.2,2.5,0.2c31.8,0,63.6,0,95.4,0c0.5,0,1,0,1.5,0c-0.4,0.8-0.9,1.2-1.3,1.7c-10.6,10.6-21.2,21.3-31.9,31.9c-1.6,1.6-1.9,4.1-0.9,5.9c1.1,2,3.4,3.1,5.5,2.4c1.2-0.4,2.5-1.1,3.4-2c13.5-13.5,27-27,40.5-40.5c2.6-2.7,2.6-6.2,0-8.9c-13.6-13.5-27.1-27.1-40.6-40.7c-2.3-2.3-5.4-2.4-7.5-0.3c-2,2.1-1.9,5.1,0.4,7.4c10.5,10.5,20.9,21,31.4,31.5C223.7,121.7,224.1,122.1,224.7,122.8z"/></g></g>
</svg>