<?xml version="1.0" encoding="utf-8"?>
<!-- Svg Vector Icons : http://www.onlinewebfonts.com/icon -->
<!DOCTYPE svg PUBLIC "-//W3C//DTD SVG 1.1//EN" "http://www.w3.org/Graphics/SVG/1.1/DTD/svg11.dtd">
<svg version="1.1" xmlns="http://www.w3.org/2000/svg" xmlns:xlink="http://www.w3.org/1999/xlink" x="0px" y="0px" viewBox="0 0 256 256" enable-background="new 0 0 256 256" xml:space="preserve">
<metadata> Svg Vector Icons : http://www.onlinewebfonts.com/icon </metadata>
<g><g><path fill="#000000" d="M129.9,234.7c-5.6-0.1-26.1-0.3-31.2-0.7c-9.7-0.7-18.5-2.1-26.1-4c-11.4-2.9-20.7-7.1-27.7-12.6c-6.5-5.1-11.2-11.5-14.4-19.4c-3.3-8.4-5-18.8-5-30.9c0-9.5,1.8-19.4,5.4-29.4c3.6-9.9,8.7-19.4,15.2-28.3c6.5-8.9,14.1-16.7,22.6-23.3c7.7-5.9,15.7-10.5,23.9-13.7l0.2-0.1l51,0.1c8.2,3.2,16.2,7.8,23.9,13.7c8.5,6.6,16.1,14.4,22.6,23.3c1.9,2.6,3.6,5.2,5.3,7.9c7.4,1.3,14.4,3.7,20.9,6.9c-13.6-30.2-39.9-56.7-70-67.2L90.3,57C46,72.4,10,121.8,10,167.2c0,52.3,27.7,78.2,89.3,82.4c6,0.4,27.3,0.6,33.9,0.6c3,0,5.9-0.1,8.7-0.1C137.3,245.5,133.2,240.4,129.9,234.7L129.9,234.7z"/><path fill="#000000" d="M73.2,20.7L73.2,21L91,47.7h54.4l17.9-26.6l-0.2-1.1l0.1-0.4c0.1-0.4,0.2-0.9,0.2-1.3c0-2.9-1.4-5.4-3.6-6.5l-0.5-0.2l-0.1-0.4c-3.2-0.8-22.8-5.4-40.4-5.4h-0.5c-17.4,0.1-38.8,4.9-40.9,5.4l-0.6,0.6c-2.2,1-3.6,3.6-3.6,6.5c0,0.4,0.1,0.8,0.2,1.5L73.2,20.7L73.2,20.7z M95.7,23.3c8.7-1.4,16.2-2.1,22.5-2.1h0.4c6.4,0,13.8,0.7,22,2l2.3,0.4l-5.8,8.8H99.2l-5.8-8.6L95.7,23.3L95.7,23.3z"/><path fill="#000000" d="M241.1,126.5h-88.7c-2.7,0-4.9,2.5-4.9,5.6v111.4c0,3.1,2.2,5.6,4.9,5.6h88.7c2.7,0,4.9-2.5,4.9-5.6V132C246,128.9,243.8,126.5,241.1,126.5L241.1,126.5L241.1,126.5z M176.7,234.3c0,2.2-1.7,4-3.7,4h-11.2c-2.1,0-3.7-1.8-3.7-4v-8c0-2.2,1.7-4,3.7-4H173c2.1,0,3.7,1.8,3.7,4V234.3L176.7,234.3L176.7,234.3z M176.7,210.4c0,2.2-1.7,4-3.7,4h-11.2c-2.1,0-3.7-1.8-3.7-4v-8c0-2.2,1.7-4,3.7-4H173c2.1,0,3.7,1.8,3.7,4V210.4L176.7,210.4L176.7,210.4z M176.7,186.4c0,2.2-1.7,4-3.7,4h-11.2c-2.1,0-3.7-1.8-3.7-4v-8c0-2.2,1.7-4,3.7-4H173c2.1,0,3.7,1.8,3.7,4V186.4L176.7,186.4L176.7,186.4z M206,234.3c0,2.2-1.7,4-3.7,4h-11.2c-2.1,0-3.7-1.8-3.7-4v-8c0-2.2,1.7-4,3.7-4h11.2c2.1,0,3.7,1.8,3.7,4V234.3L206,234.3L206,234.3z M206,210.4c0,2.2-1.7,4-3.7,4h-11.2c-2.1,0-3.7-1.8-3.7-4v-8c0-2.2,1.7-4,3.7-4h11.2c2.1,0,3.7,1.8,3.7,4V210.4L206,210.4L206,210.4z M206,186.4c0,2.2-1.7,4-3.7,4h-11.2c-2.1,0-3.7-1.8-3.7-4v-8c0-2.2,1.7-4,3.7-4h11.2c2.1,0,3.7,1.8,3.7,4V186.4L206,186.4L206,186.4z M235.3,234.3c0,2.2-1.7,4-3.7,4h-11.2c-2.1,0-3.7-1.8-3.7-4v-8c0-2.2,1.7-4,3.7-4h11.2c2.1,0,3.7,1.8,3.7,4V234.3L235.3,234.3L235.3,234.3z M235.3,210.4c0,2.2-1.7,4-3.7,4h-11.2c-2.1,0-3.7-1.8-3.7-4v-8c0-2.2,1.7-4,3.7-4h11.2c2.1,0,3.7,1.8,3.7,4V210.4L235.3,210.4L235.3,210.4z M235.3,186.4c0,2.2-1.7,4-3.7,4h-11.2c-2.1,0-3.7-1.8-3.7-4v-8c0-2.2,1.7-4,3.7-4h11.2c2.1,0,3.7,1.8,3.7,4V186.4L235.3,186.4L235.3,186.4z M235.3,161.1c0,2.9-2.4,5.3-5.3,5.3h-66.6c-2.9,0-5.3-2.4-5.3-5.3v-21.3c0-2.9,2.4-5.3,5.3-5.3H230c2.9,0,5.3,2.4,5.3,5.3L235.3,161.1L235.3,161.1L235.3,161.1z"/><path fill="#000000" d="M139.6,150c2,3.4,3,7.4,3,12c0,7-2.1,12.9-6.3,17.6c-4.2,4.7-10.2,7.5-18.2,8.3v12h-10.1v-12c-13.2-1.3-21.4-9-24.5-23l15.6-4.1c1.4,8.8,6.2,13.2,14.4,13.2c3.8,0,6.6-0.9,8.4-2.8c1.8-1.9,2.7-4.1,2.7-6.8c0-2.8-0.9-4.9-2.7-6.3c-1.8-1.4-5.8-3.2-11.9-5.4c-5.6-1.9-9.9-3.8-13-5.7c-3.1-1.9-5.7-4.5-7.6-7.9c-2-3.4-2.9-7.4-2.9-11.8c0-5.9,1.7-11.2,5.2-15.9c3.5-4.7,9-7.6,16.4-8.7v-9.3h10.1v9.3c11.3,1.3,18.6,7.7,21.9,19.1l-13.9,5.7c-2.7-7.8-6.9-11.7-12.6-11.7c-2.8,0-5.1,0.9-6.9,2.6c-1.7,1.7-2.6,3.9-2.6,6.4c0,2.5,0.8,4.5,2.5,5.8c1.7,1.3,5.2,3,10.7,5c6,2.2,10.7,4.3,14.1,6.2C134.8,143.9,137.6,146.6,139.6,150L139.6,150z"/></g></g>
</svg>